<?xml version="1.0" encoding="utf-8"?>
<!-- Generator: Adobe Illustrator 20.1.0, SVG Export Plug-In . SVG Version: 6.00 Build 0)  -->
<svg version="1.1" id="Layer_1" xmlns="http://www.w3.org/2000/svg" xmlns:xlink="http://www.w3.org/1999/xlink" x="0px" y="0px"
	 viewBox="1.8 174.6 608.4 416.9" style="enable-background:new 1.8 174.6 608.4 416.9;" xml:space="preserve">
<style type="text/css">
	.st0{fill:#FFF200;}
</style>
<path class="st0" d="M111.1,546.9L5.9,425.7l13-148.3l124.5-99L606,218.9l-32.2,368.3L111.1,546.9z M46.7,374.1
	c9.1,0.8,17.2-5.9,18-15c0.8-9.1-5.9-17.2-15-18s-17.2,5.9-18,15C31,365.2,37.6,373.3,46.7,374.1z"/>
<g>
	<path d="M15.2,275.3L1.8,426.9l107.3,123.7l468.1,40.9l33-376l-468.1-40.9L15.2,275.3z M144.5,182.4l457.2,40.1l-31.6,360.6
		L112.9,543L9.9,424.3l12.8-144.9L144.5,182.4z"/>
	<path d="M35,341.9c-4.3,3.4-6.7,8.5-7.3,14c0,0.6,0,1.2,0,1.8c0,4.9,1.6,9.3,4.9,13.2c3.4,4.3,8.5,6.7,14,7.3
		c5.5,0.4,10.7-1.2,15-4.7c4.2-3.4,6.7-8.5,7.3-14c0.4-5.5-1.2-10.7-4.7-15c-3.4-4.3-8.5-6.7-14-7.3C44.5,336.7,39.3,338.3,35,341.9
		z M47.2,370.3L47.2,370.3c-3.4-0.2-6.5-1.8-8.7-4.5c-2.2-2.6-3.2-5.9-2.8-9.3c0.2-3.4,1.8-6.5,4.5-8.7c2.6-2.2,5.9-3.2,9.3-2.8
		c3.4,0.2,6.5,1.8,8.7,4.5c2.2,2.6,3.2,5.9,2.8,9.3c-0.2,3.4-1.8,6.5-4.5,8.7C53.8,369.4,50.4,370.5,47.2,370.3z M46.3,377.9
		L46.3,377.9L46.3,377.9z"/>
</g>
<g>
	<path d="M442,404l14.8,30.4l1.6,0.2c2-3.4,3.6-6.7,6.1-9.9l12.8-17.4l63.1,5.5L481.9,471l-4.3,47.6l-54.8-4.9l4.3-47.6l-48.6-67.6
		L442,404z"/>
	<path d="M380.3,398.8l-5.7,65.4c-2.8,32.2-31.4,44.5-73.1,40.9s-67.8-20.6-65-52.8l5.7-65.4l54.2,4.7L291,453
		c-0.8,8.7-1,16.2,13.4,17.6c14.4,1.2,15.6-6.3,16.2-15l5.5-61.5L380.3,398.8z"/>
	<path d="M106.5,374.5l65.4,5.7c30,2.6,60.1,10.3,57.9,35.8c-0.8,9.7-8.5,18.6-22.3,20.4v0.8c16.4,5.7,26.3,15.4,25.1,28.5
		c-2,22.7-32.2,27.9-59.3,25.5l-76.5-6.7L106.5,374.5z M159.9,422.1c8.3,0.8,17.4,1,18.2-6.7c0.8-8.3-9.7-8.5-18-9.3l-3.8-0.4
		l-1.4,15.8L159.9,422.1z M151.2,463.1l6.3,0.6c9.3,0.8,22.5,1.8,23.3-7.3c0.8-9.3-13.6-10.3-22.7-11.1l-5.5-0.4L151.2,463.1z"/>
	<path d="M232.7,261.2l104,9.1l-2.6,30.2l-47.4-4l-1,10.5l43.3,3.8l-2.4,28.7l-43.3-3.8l-1,10.9l49,4.3l-2.6,30.2L223,371.7
		L232.7,261.2z"/>
	<path d="M352.3,343.1l2.6,1.8c9.5,6.5,21.3,12.1,34.2,13.2c5.5,0.4,14.6-0.4,15-5.3c0.4-5.1-6.9-6.1-11.9-7.3l-11.1-2.4
		c-21.7-4.7-39.3-15.6-37.8-32.8c2.2-26.3,37-37.8,70.6-35c17.6,1.6,33.6,6.1,48.2,14l-17.6,26.9c-9.3-5.5-19.8-10.1-31.8-11.1
		c-4.9-0.4-12.1,0.2-12.5,4.9c-0.4,4,6.5,5.3,10.7,6.5l12.5,3.2c23.5,5.9,39.9,16.4,38.3,35.2c-2.2,26.3-37,36.4-70.4,33.6
		c-19.4-1.6-41.7-7.5-58.5-15.4L352.3,343.1z"/>
	<path d="M466.3,281.6l118,10.3l-3.2,35.8l-31-3.6l-6.7,75.5l-56.3-4.9l6.7-75.5l-30.8-1.8L466.3,281.6z"/>
	<path d="M94.7,248.4l65.4,5.7c30,2.6,60.1,10.3,57.9,35.8c-0.8,9.7-8.5,18.6-22.3,20.4v0.8c16.4,5.7,26.3,15.4,25.1,28.5
		c-2,22.7-32.2,27.9-59.3,25.5L85,358.5L94.7,248.4z M148.3,296c8.3,0.8,17.4,1,18.2-6.7c0.8-8.3-9.7-8.5-18-9.3l-3.8-0.4l-1.4,15.8
		L148.3,296z M139.4,337.1l6.3,0.6c9.3,0.8,22.5,1.8,23.3-7.3c0.8-9.3-13.6-10.3-22.7-11.1l-5.5-0.4L139.4,337.1z"/>
</g>
</svg>
